<svg id="Layer_1" data-name="Layer 1" xmlns="http://www.w3.org/2000/svg" viewBox="0 0 300 300"><title>logo</title><path d="M187.64,104.58a8.7,8.7,0,0,1,2.2,6.2v78.27a8.74,8.74,0,0,1-2.27,6.26,7.71,7.71,0,0,1-5.87,2.4,7.63,7.63,0,0,1-6.53-3.06L126.5,131.31v57.74a9.07,9.07,0,0,1-2.13,6.26,8.37,8.37,0,0,1-11.73,0,9,9,0,0,1-2.14-6.26V110.78a8.53,8.53,0,0,1,2.27-6.2,8,8,0,0,1,6-2.33,7.5,7.5,0,0,1,6.4,3.06l48.53,63.07v-57.6a8.7,8.7,0,0,1,2.2-6.2,7.59,7.59,0,0,1,5.8-2.33A7.77,7.77,0,0,1,187.64,104.58Z"/><path d="M156.08.47A145.2,145.2,0,0,0,88,89.19a146.66,146.66,0,0,0-5,37.67A149.82,149.82,0,0,1,279.58,74.39,149.94,149.94,0,0,0,155.89.13Z"/><path d="M280.47,224.07a149.89,149.89,0,0,0,2.41-143.73l-.13.22A146.15,146.15,0,0,0,137,80.45C214.67,83.71,277.27,146.34,280.47,224.07Z"/><path d="M23.38,70.12A146.17,146.17,0,0,0,96.17,196.43,149.84,149.84,0,0,1,149.36,0,149.87,149.87,0,0,0,23.06,70.12Z"/><path d="M203.94,104a149.86,149.86,0,0,1-52.47,196,149.87,149.87,0,0,0,125.26-69.7A146.17,146.17,0,0,0,203.94,104Z"/><path d="M17.36,219.87a145.22,145.22,0,0,0,110.89,14.64A146.81,146.81,0,0,0,163.38,220c-78-3.15-140.8-66.1-143.75-144.13A149.92,149.92,0,0,0,17.31,220Z"/><path d="M212.15,211.25a146.74,146.74,0,0,0,5-37.68,149,149,0,0,1-87.89,64.7,150.63,150.63,0,0,1-39,5.17A149,149,0,0,1,20.8,226.2a149.94,149.94,0,0,0,123.37,73.68A145.18,145.18,0,0,0,212.15,211.25Z"/></svg>